<svg xmlns="http://www.w3.org/2000/svg" width="120" height="120" viewBox="0 0 60.9367 60.83407">
  <g id="Layer_2" data-name="Layer 2">
    <rect x="30.03774" y="43.14101" width="0.85268" height="7.29065" fill="#231f20"/>
    <rect x="30.03774" y="14.17119" width="0.85268" height="12.90966" fill="#231f20"/>
    <rect x="110.3418" y="391.96516" width="0.85257" height="7.32279" transform="translate(-113.41236 -337.68304) rotate(-5.0101)" fill="#231f20"/>
    <rect x="108.09925" y="364.07826" width="0.85257" height="11.92342" transform="translate(-111.15481 -337.989) rotate(-5.00505)" fill="#231f20"/>
    <rect x="111.36062" y="391.82922" width="0.85275" height="7.42438" transform="translate(-146.18682 -323.48836) rotate(-9.98685)" fill="#231f20"/>
    <rect x="106.9693" y="365.10873" width="0.85275" height="11.04783" transform="matrix(0.98481, -0.17366, 0.17366, 0.98481, -142.01597, -324.5869)" fill="#231f20"/>
    <rect x="112.38179" y="391.60709" width="0.85258" height="7.59594" transform="translate(-177.75022 -306.21569) rotate(-14.99524)" fill="#231f20"/>
    <rect x="105.91207" y="366.11301" width="0.85258" height="10.28371" transform="translate(-171.71059 -308.71884) rotate(-14.99328)" fill="#231f20"/>
    <rect x="113.40931" y="391.28667" width="0.85242" height="7.83584" transform="translate(-207.66332 -286.0453) rotate(-20.01302)" fill="#231f20"/>
    <rect x="104.92938" y="367.11124" width="0.85281" height="9.61332" transform="translate(-200.10373 -290.42726) rotate(-19.99434)" fill="#231f20"/>
    <rect x="114.43879" y="390.8729" width="0.85272" height="8.1521" transform="translate(-235.41997 -263.33411) rotate(-24.99709)" fill="#231f20"/>
    <rect x="104.01701" y="368.07714" width="0.85272" height="9.05047" transform="translate(-226.94119 -269.84156) rotate(-24.99476)" fill="#231f20"/>
    <rect x="115.47263" y="390.35743" width="0.85281" height="8.55145" transform="translate(-261.08805 -238.03309) rotate(-30.00283)" fill="#231f20"/>
    <rect x="103.16428" y="369.027" width="0.85281" height="8.5705" transform="translate(-252.03974 -247.08168) rotate(-29.99518)" fill="#231f20"/>
    <rect x="116.51514" y="389.73941" width="0.85264" height="9.02431" transform="translate(-284.25155 -210.51659) rotate(-34.99592)" fill="#231f20"/>
    <rect x="102.37133" y="369.97081" width="0.85264" height="8.17049" transform="matrix(0.81924, -0.57345, 0.57345, 0.81924, -275.20539, -222.30513)" fill="#231f20"/>
    <rect x="117.56613" y="389.00596" width="0.85261" height="9.59606" transform="translate(-304.84262 -180.84534) rotate(-40.00768)" fill="#231f20"/>
    <rect x="101.63806" y="370.8998" width="0.85261" height="7.84715" transform="translate(-296.32245 -195.59322) rotate(-39.9959)" fill="#231f20"/>
    <rect x="118.62553" y="388.15247" width="0.85259" height="10.25886" transform="translate(-322.56623 -149.387) rotate(-45.01726)" fill="#231f20"/>
    <rect x="100.95599" y="371.8129" width="0.85259" height="7.60307" transform="translate(-315.18657 -167.17163) rotate(-44.99889)" fill="#231f20"/>
    <rect x="119.69547" y="387.16897" width="0.85293" height="11.02761" transform="translate(-337.24575 -116.44301) rotate(-50.02049)" fill="#231f20"/>
    <rect x="100.32503" y="372.71276" width="0.85256" height="7.43211" transform="translate(-331.59936 -137.34567) rotate(-49.98011)" fill="#231f20"/>
    <rect x="120.77196" y="386.04735" width="0.85288" height="11.90231" transform="translate(-348.72089 -82.39542) rotate(-55.00519)" fill="#231f20"/>
    <rect x="99.74085" y="373.60462" width="0.85264" height="7.33209" transform="translate(-345.65052 -105.83753) rotate(-55.01584)" fill="#231f20"/>
    <rect x="121.86137" y="384.76884" width="0.85281" height="12.89888" transform="translate(-356.93787 -47.39122) rotate(-59.99476)" fill="#231f20"/>
    <rect x="99.20774" y="374.49031" width="0.85281" height="7.30021" transform="translate(-356.96053 -73.46299) rotate(-60.00747)" fill="#231f20"/>
    <rect x="121.99786" y="383.92855" width="0.85254" height="11.919" transform="translate(-361.96961 -12.71336) rotate(-65.01225)" fill="#231f20"/>
    <rect x="98.72191" y="375.37103" width="0.85272" height="7.33364" transform="translate(-365.56404 -40.15706) rotate(-65.0004)" fill="#231f20"/>
    <rect x="122.05339" y="383.09386" width="0.85242" height="11.04325" transform="translate(-363.87484 21.92299) rotate(-69.99955)" fill="#231f20"/>
    <rect x="98.28292" y="376.24298" width="0.85242" height="7.4354" transform="translate(-371.39375 -5.98831) rotate(-70.01717)" fill="#231f20"/>
    <rect x="122.03832" y="382.25041" width="0.85258" height="10.27037" transform="translate(-362.69889 56.62316) rotate(-75.01083)" fill="#231f20"/>
    <rect x="97.89064" y="377.11312" width="0.85258" height="7.60531" transform="translate(-374.35008 28.35474) rotate(-74.98958)" fill="#231f20"/>
    <rect x="121.95969" y="381.39917" width="0.85227" height="9.6105" transform="matrix(0.17346, -0.98484, 0.98484, 0.17346, -358.47822, 90.87521)" fill="#231f20"/>
    <rect x="97.54748" y="377.97405" width="0.85234" height="7.8532" transform="translate(-374.42401 63.18829) rotate(-79.99809)" fill="#231f20"/>
    <rect x="121.82306" y="380.55558" width="0.85261" height="9.03858" transform="translate(-351.30771 124.39458) rotate(-84.99494)" fill="#231f20"/>
    <rect x="97.25309" y="378.83911" width="0.85261" height="8.16568" transform="translate(-371.58583 97.97487) rotate(-84.99812)" fill="#231f20"/>
    <rect x="38.49208" y="34.68251" width="8.56092" height="0.85268" fill="#231f20"/>
    <rect x="13.871" y="34.68251" width="8.56092" height="0.85268" fill="#231f20"/>
    <rect x="117.73176" y="382.49564" width="8.16568" height="0.85261" transform="translate(-112.28967 -336.75476) rotate(-5.01458)" fill="#231f20"/>
    <rect x="92.72097" y="384.64857" width="9.04294" height="0.85261" transform="translate(-112.5719 -338.89435) rotate(-5.01458)" fill="#231f20"/>
    <rect x="117.59374" y="381.47448" width="7.8532" height="0.85234" transform="translate(-143.84479 -321.91744) rotate(-10.01446)" fill="#231f20"/>
    <rect x="92.29839" y="385.78054" width="9.61539" height="0.85234" transform="translate(-144.96558 -326.09739) rotate(-10.01446)" fill="#231f20"/>
    <rect x="117.37455" y="380.48949" width="7.61356" height="0.85258" transform="matrix(0.96593, -0.25882, 0.25882, 0.96593, -173.74354, -304.52505)" fill="#231f20"/>
    <rect x="91.88936" y="386.96139" width="10.27567" height="0.85258" transform="matrix(0.96593, -0.25882, 0.25882, 0.96593, -176.24161, -310.55604)" fill="#231f20"/>
    <rect x="117.06659" y="379.53232" width="7.44093" height="0.85256" transform="translate(-202.05863 -284.56161) rotate(-20.01896)" fill="#231f20"/>
    <rect x="91.49276" y="388.18927" width="11.04325" height="0.85242" transform="translate(-206.30616 -292.27953) rotate(-19.99267)" fill="#231f20"/>
    <rect x="116.67854" y="378.60929" width="7.34727" height="0.85254" transform="translate(-228.13578 -262.54806) rotate(-24.98816)" fill="#231f20"/>
    <rect x="91.1094" y="389.46398" width="11.92094" height="0.85272" transform="translate(-235.03874 -271.25531) rotate(-25.01351)" fill="#231f20"/>
    <rect x="116.21257" y="377.70963" width="7.31558" height="0.85281" transform="translate(-252.26861 -238.29948) rotate(-29.99469)" fill="#231f20"/>
    <rect x="90.76606" y="390.78979" width="12.89301" height="0.85281" transform="translate(-261.84216 -247.87475) rotate(-29.99469)" fill="#231f20"/>
    <rect x="115.65822" y="376.83777" width="7.34989" height="0.85288" transform="translate(-274.09867 -212.18746) rotate(-35.00119)" fill="#231f20"/>
    <rect x="92.34822" y="391.57207" width="11.8989" height="0.85288" transform="translate(-286.35465 -221.58844) rotate(-35.00119)" fill="#231f20"/>
    <rect x="115.02533" y="375.99816" width="7.44762" height="0.85256" transform="translate(-293.56636 -184.31014) rotate(-40.02769)" fill="#231f20"/>
    <rect x="93.86211" y="392.25663" width="11.02426" height="0.85229" transform="translate(-308.47333 -193.0854) rotate(-40.00626)" fill="#231f20"/>
    <rect x="114.30898" y="375.18377" width="7.61838" height="0.85259" transform="translate(-310.28541 -155.33232) rotate(-45)" fill="#231f20"/>
    <rect x="95.31127" y="392.85769" width="10.26181" height="0.85259" transform="translate(-327.95993 -162.65457) rotate(-45)" fill="#231f20"/>
    <rect x="113.5028" y="374.39083" width="7.86221" height="0.85261" transform="translate(-324.49363 -124.94496) rotate(-50.01173)" fill="#231f20"/>
    <rect x="96.70194" y="393.37977" width="9.59925" height="0.85261" transform="translate(-344.73624 -130.36587) rotate(-50.01173)" fill="#231f20"/>
    <rect x="112.60951" y="373.62574" width="8.18221" height="0.8523" transform="translate(-335.93828 -93.73098) rotate(-55.00569)" fill="#231f20"/>
    <rect x="98.03335" y="393.82962" width="9.03398" height="0.85264" transform="translate(-358.56455 -96.59896) rotate(-55.02173)" fill="#231f20"/>
    <rect x="111.61717" y="372.88355" width="8.57665" height="0.85281" transform="translate(-344.63616 -61.80068) rotate(-60.00531)" fill="#231f20"/>
    <rect x="99.31725" y="394.20903" width="8.55541" height="0.85281" transform="translate(-369.26181 -61.79803) rotate(-60.00531)" fill="#231f20"/>
    <rect x="110.52962" y="372.17602" width="9.05056" height="0.85272" transform="translate(-350.53428 -29.55028) rotate(-64.98649)" fill="#231f20"/>
    <rect x="100.55022" y="394.52675" width="8.16141" height="0.85272" transform="translate(-376.80508 -26.09643) rotate(-64.98649)" fill="#231f20"/>
    <rect x="109.32888" y="371.48732" width="9.62303" height="0.85242" transform="translate(-353.66987 3.15008) rotate(-70.00733)" fill="#231f20"/>
    <rect x="101.73644" y="394.78255" width="7.84406" height="0.85281" transform="translate(-381.14935 10.57806) rotate(-70.01689)" fill="#231f20"/>
    <rect x="108.0157" y="370.83066" width="10.27964" height="0.85258" transform="translate(-354.02293 35.60094) rotate(-75.00009)" fill="#231f20"/>
    <rect x="102.88794" y="394.97877" width="7.59594" height="0.85258" transform="translate(-382.14338 47.24993) rotate(-75.00009)" fill="#231f20"/>
    <rect x="106.58061" y="370.20835" width="11.04373" height="0.85275" transform="translate(-351.66056 67.74153) rotate(-79.9904)" fill="#231f20"/>
    <rect x="103.99448" y="395.11712" width="7.4292" height="0.85275" transform="translate(-379.81995 83.9943) rotate(-79.9904)" fill="#231f20"/>
    <rect x="105.0092" y="369.61806" width="11.91434" height="0.85257" transform="translate(-346.60802 99.55661) rotate(-85.01329)" fill="#231f20"/>
    <rect x="105.06451" y="395.20027" width="7.32279" height="0.85257" transform="matrix(0.08692, -0.99621, 0.99621, 0.08692, -374.13911, 120.68311)" fill="#231f20"/>
  </g>
  <g id="Layer_3" data-name="Layer 3">
    <rect x="30.25091" y="43.14101" width="0.42634" height="12.43627" fill="#231f20"/>
    <rect x="30.25091" y="7.15825" width="0.42634" height="19.9226" fill="#231f20"/>
    <rect x="110.77873" y="391.95543" width="0.42629" height="12.47955" transform="translate(-113.5506 -337.68568) rotate(-4.99748)" fill="#231f20"/>
    <rect x="108.02251" y="357.4062" width="0.42629" height="18.60807" transform="translate(-110.79887 -338.05313) rotate(-4.99434)" fill="#231f20"/>
    <rect x="112.02366" y="391.78994" width="0.42627" height="12.61484" transform="translate(-146.60463 -323.3806) rotate(-9.98399)" fill="#231f20"/>
    <rect x="106.62625" y="358.76271" width="0.42617" height="17.44262" transform="translate(-141.52143 -324.7098) rotate(-10.00778)" fill="#231f20"/>
    <rect x="113.27291" y="391.51792" width="0.42618" height="12.83913" transform="translate(-178.35991 -305.96749) rotate(-14.99162)" fill="#231f20"/>
    <rect x="105.33234" y="360.08698" width="0.42618" height="16.41408" transform="translate(-170.96956 -309.026) rotate(-14.99292)" fill="#231f20"/>
    <rect x="114.53265" y="391.1264" width="0.42621" height="13.16586" transform="translate(-208.36732 -285.65418) rotate(-19.99619)" fill="#231f20"/>
    <rect x="104.13013" y="361.37309" width="0.42621" height="15.53015" transform="translate(-199.25661 -290.91052) rotate(-20.00214)" fill="#231f20"/>
    <rect x="115.80098" y="390.61798" width="0.42636" height="13.58607" transform="translate(-236.39373 -262.58197) rotate(-25.00464)" fill="#231f20"/>
    <rect x="103.02151" y="362.62482" width="0.42618" height="14.77077" transform="translate(-225.96971 -270.58598) rotate(-24.99684)" fill="#231f20"/>
    <rect x="117.0757" y="389.98521" width="0.42641" height="14.11343" transform="translate(-262.07146 -237.05198) rotate(-29.99583)" fill="#231f20"/>
    <rect x="101.98761" y="363.84112" width="0.42641" height="14.12888" transform="translate(-251.04376 -248.07752) rotate(-29.99964)" fill="#231f20"/>
    <rect x="118.36963" y="389.22198" width="0.42656" height="14.7489" transform="translate(-285.29399 -209.1583) rotate(-34.99467)" fill="#231f20"/>
    <rect x="101.02817" y="365.0337" width="0.42656" height="13.59812" transform="matrix(0.81924, -0.57344, 0.57344, 0.81924, -274.21029, -223.60115)" fill="#231f20"/>
    <rect x="119.67855" y="388.31527" width="0.4263" height="15.50938" transform="translate(-305.79397 -179.18722) rotate(-39.99227)" fill="#231f20"/>
    <rect x="100.13958" y="366.197" width="0.42614" height="13.17297" transform="translate(-295.41899 -197.16014) rotate(-39.99778)" fill="#231f20"/>
    <rect x="121.00878" y="387.25355" width="0.42629" height="16.39669" transform="translate(-323.44492 -147.25393) rotate(-45.01132)" fill="#231f20"/>
    <rect x="99.3166" y="367.34049" width="0.42629" height="12.84283" transform="translate(-314.42076 -169.02147) rotate(-44.99934)" fill="#231f20"/>
    <rect x="122.35598" y="386.02842" width="0.42628" height="17.41887" transform="translate(-337.90019 -113.94168) rotate(-50.00418)" fill="#231f20"/>
    <rect x="98.55143" y="368.45558" width="0.42614" height="12.61652" transform="translate(-331.10036 -139.31964) rotate(-50.0033)" fill="#231f20"/>
    <rect x="123.72674" y="384.61989" width="0.42598" height="18.59429" transform="translate(-349.13001 -79.31048) rotate(-55.00824)" fill="#231f20"/>
    <rect x="97.84809" y="369.5582" width="0.42598" height="12.47469" transform="translate(-345.31771 -108.25385) rotate(-55.00618)" fill="#231f20"/>
    <rect x="125.11668" y="383.01273" width="0.42605" height="19.92422" transform="translate(-356.93879 -43.87655) rotate(-59.99509)" fill="#231f20"/>
    <rect x="97.19783" y="370.6398" width="0.42605" height="12.43445" transform="translate(-356.95861 -76.03863) rotate(-60.00622)" fill="#231f20"/>
    <rect x="125.238" y="382.00124" width="0.42636" height="18.60062" transform="translate(-361.48861 -9.26245) rotate(-64.9969)" fill="#231f20"/>
    <rect x="96.60292" y="371.71057" width="0.42636" height="12.47998" transform="translate(-365.92725 -42.8875) rotate(-65.00204)" fill="#231f20"/>
    <rect x="125.26784" y="380.99168" width="0.42621" height="17.43052" transform="translate(-362.92728 25.50435) rotate(-70.00555)" fill="#231f20"/>
    <rect x="96.06369" y="372.76752" width="0.42628" height="12.6131" transform="translate(-372.14928 -8.98037) rotate(-69.99912)" fill="#231f20"/>
    <rect x="125.2124" y="379.9796" width="0.42635" height="16.40202" transform="translate(-361.27671 59.97446) rotate(-74.99701)" fill="#231f20"/>
    <rect x="95.57323" y="373.81575" width="0.42669" height="12.84443" transform="translate(-375.57101 25.44887) rotate(-74.99549)" fill="#231f20"/>
    <rect x="125.08248" y="378.95819" width="0.42617" height="15.52" transform="translate(-356.58829 94.10039) rotate(-80.00159)" fill="#231f20"/>
    <rect x="95.14072" y="374.85355" width="0.42613" height="13.17324" transform="translate(-376.12898 60.31831) rotate(-80.01132)" fill="#231f20"/>
    <rect x="124.88632" y="377.94208" width="0.42629" height="14.76021" transform="translate(-348.92441 127.58187) rotate(-85.01269)" fill="#231f20"/>
    <rect x="94.76333" y="375.88915" width="0.42629" height="13.59221" transform="translate(-373.81845 95.05884) rotate(-84.99704)" fill="#231f20"/>
    <rect x="38.49208" y="34.89568" width="14.1204" height="0.42634" fill="#231f20"/>
    <rect x="8.30736" y="34.89568" width="14.12456" height="0.42634" fill="#231f20"/>
    <rect x="117.72141" y="382.47211" width="13.59221" height="0.42629" transform="translate(-112.07846 -336.59597) rotate(-4.98671)" fill="#231f20"/>
    <rect x="87.00988" y="385.11112" width="14.76492" height="0.42629" transform="translate(-112.42188 -339.20461) rotate(-4.98671)" fill="#231f20"/>
    <rect x="117.55358" y="381.2271" width="13.17324" height="0.42613" transform="matrix(0.98476, -0.1739, 0.1739, 0.98476, -143.7248, -321.46887)" fill="#231f20"/>
    <rect x="86.43393" y="386.50719" width="15.52483" height="0.42617" transform="translate(-145.09922 -326.59556) rotate(-10.01446)" fill="#231f20"/>
    <polygon points="55.801 28.535 55.797 28.535 55.797 28.108 55.801 28.535" fill="#231f20"/>
    <rect x="117.28527" y="380.02462" width="12.84865" height="0.42669" transform="translate(-173.39729 -303.9488) rotate(-14.98544)" fill="#231f20"/>
    <rect x="85.85473" y="387.96726" width="16.41449" height="0.42669" transform="translate(-176.45932 -311.34478) rotate(-14.98544)" fill="#231f20"/>
    <rect x="116.91021" y="378.85867" width="12.6266" height="0.42621" transform="translate(-201.46371 -283.89377) rotate(-19.99267)" fill="#231f20"/>
    <rect x="85.29276" y="389.49612" width="17.4362" height="0.42621" transform="translate(-206.86111 -293.24052) rotate(-19.99267)" fill="#231f20"/>
    <polygon points="37.828 31.913 37.647 31.526 49.061 26.224 49.063 26.442 49.151 26.63 37.828 31.913" fill="#231f20"/>
    <rect x="84.73834" y="391.08841" width="18.60458" height="0.42627" transform="translate(-235.64074 -272.62561) rotate(-24.96279)" fill="#231f20"/>
    <rect x="115.86886" y="376.63984" width="12.44979" height="0.42605" transform="translate(-251.45895 -237.21609) rotate(-30.02268)" fill="#231f20"/>
    <rect x="84.21668" y="392.75745" width="19.91228" height="0.42605" transform="translate(-263.2695 -249.02358) rotate(-30.02268)" fill="#231f20"/>
    <rect x="115.19341" y="375.57593" width="12.49607" height="0.42632" transform="translate(-272.90943 -211.19445) rotate(-35.01037)" fill="#231f20"/>
    <rect x="86.266" y="393.70158" width="18.58484" height="0.42632" transform="translate(-287.69208 -223.10483) rotate(-34.94622)" fill="#231f20"/>
    <rect x="114.41857" y="374.54431" width="12.63454" height="0.42614" transform="translate(-291.95045 -183.54764) rotate(-40.00626)" fill="#231f20"/>
    <rect x="88.21544" y="394.52479" width="17.41887" height="0.42614" transform="translate(-310.3677 -194.17908) rotate(-40.00626)" fill="#231f20"/>
    <rect x="113.54089" y="373.54251" width="12.86358" height="0.42629" transform="translate(-308.43097 -154.56413) rotate(-45)" fill="#231f20"/>
    <rect x="90.07225" y="395.24083" width="16.39964" height="0.42629" transform="translate(-330.12996 -163.55349) rotate(-45)" fill="#231f20"/>
    <rect x="112.55303" y="372.56596" width="13.18516" height="0.4263" transform="translate(-322.36694 -124.2482) rotate(-50.0297)" fill="#231f20"/>
    <rect x="91.84242" y="395.85889" width="15.51538" height="0.4263" transform="translate(-347.09592 -131.12829) rotate(-49.99374)" fill="#231f20"/>
    <rect x="111.45079" y="371.61523" width="13.60767" height="0.42632" transform="translate(-333.39344 -93.59979) rotate(-54.97591)" fill="#231f20"/>
    <rect x="93.52977" y="396.38752" width="14.75845" height="0.42656" transform="translate(-361.07045 -97.2493) rotate(-54.97591)" fill="#231f20"/>
    <rect x="110.22785" y="370.69006" width="14.13503" height="0.42641" transform="translate(-341.85674 -61.80049) rotate(-60.00531)" fill="#231f20"/>
    <rect x="95.1413" y="396.83309" width="14.12319" height="0.42641" transform="translate(-372.04593 -61.79803) rotate(-60.00531)" fill="#231f20"/>
    <rect x="108.87816" y="369.79711" width="14.77077" height="0.42618" transform="translate(-347.53271 -29.61072) rotate(-65.03721)" fill="#231f20"/>
    <rect x="96.68423" y="397.202" width="13.59537" height="0.42636" transform="translate(-379.63354 -26.07389) rotate(-64.9358)" fill="#231f20"/>
    <polygon points="33.41 27.64 33.009 27.494 38.322 12.905 38.516 12.975 38.735 12.973 38.722 13.05 33.41 27.64" fill="#231f20"/>
    <rect x="98.16335" y="397.4983" width="13.16977" height="0.42621" transform="translate(-384.09405 11.30151) rotate(-70.00733)" fill="#231f20"/>
    <rect x="105.74162" y="368.0808" width="16.41388" height="0.42624" transform="matrix(0.25882, -0.96593, 0.96593, 0.25882, -350.57307, 34.17081)" fill="#231f20"/>
    <rect x="99.5838" y="397.72642" width="12.84423" height="0.42629" transform="translate(-385.09479 48.08323) rotate(-74.94606)" fill="#231f20"/>
    <rect x="103.9378" y="367.27296" width="17.43778" height="0.42627" transform="translate(-348.10598 65.65356) rotate(-79.98554)" fill="#231f20"/>
    <rect x="100.9495" y="397.88626" width="12.61964" height="0.42638" transform="translate(-382.70549 85.69792) rotate(-79.99526)" fill="#231f20"/>
    <rect x="101.95865" y="366.50145" width="18.59936" height="0.42632" transform="translate(-343.10095 96.44229) rotate(-84.95755)" fill="#231f20"/>
    <rect x="102.26235" y="397.98206" width="12.47955" height="0.42629" transform="translate(-376.83068 123.20069) rotate(-85.06904)" fill="#231f20"/>
  </g>
  <g id="Layer_4" data-name="Layer 4">
    <rect x="30.3575" y="43.14101" width="0.21317" height="17.69307" fill="#231f20"/>
    <rect x="30.3575" width="0.21317" height="27.08085" fill="#231f20"/>
    <polygon points="32.601 60.801 31.057 43.12 31.27 43.102 32.813 60.782 32.601 60.801" fill="#231f20"/>
    <polygon points="29.654 27.12 27.442 1.787 27.654 1.769 29.867 27.102 29.654 27.12" fill="#231f20"/>
    <polygon points="34.861 60.678 31.753 43.036 31.963 42.999 35.071 60.641 34.861 60.678" fill="#231f20"/>
    <polygon points="28.965 27.223 24.804 3.625 25.014 3.588 29.175 27.186 28.965 27.223" fill="#231f20"/>
    <polygon points="37.148 60.478 32.437 42.896 32.643 42.841 37.354 60.423 37.148 60.478" fill="#231f20"/>
    <polygon points="28.281 27.381 22.414 5.48 22.62 5.425 28.487 27.326 28.281 27.381" fill="#231f20"/>
    <polygon points="39.47 60.175 33.11 42.692 33.31 42.618 39.671 60.103 39.47 60.175" fill="#231f20"/>
    <polygon points="27.614 27.603 20.238 7.344 20.439 7.271 27.814 27.53 27.614 27.603" fill="#231f20"/>
    <rect x="117.08004" y="390.35816" width="0.21309" height="19.13643" transform="translate(-237.32781 -261.86758) rotate(-25.00112)" fill="#231f20"/>
    <rect x="101.8938" y="357.06012" width="0.21309" height="20.60923" transform="translate(-224.98874 -271.33713) rotate(-25.00106)" fill="#231f20"/>
    <rect x="118.60422" y="389.60418" width="0.21302" height="19.80004" transform="translate(-263.12375 -235.99897) rotate(-29.99818)" fill="#231f20"/>
    <rect x="100.67665" y="358.54966" width="0.21302" height="19.80014" transform="translate(-250.00137 -249.11981) rotate(-29.9987)" fill="#231f20"/>
    <polygon points="46.795 58.623 34.981 41.748 35.156 41.626 46.97 58.5 46.795 58.623" fill="#231f20"/>
    <polygon points="25.768 28.596 14.794 12.919 14.969 12.797 25.943 28.474 25.768 28.596" fill="#231f20"/>
    <polygon points="49.393 57.838 35.541 41.329 35.704 41.192 49.556 57.7 49.393 57.838" fill="#231f20"/>
    <polygon points="25.22 29.03 13.261 14.777 13.424 14.64 25.383 28.892 25.22 29.03" fill="#231f20"/>
    <rect x="123.33229" y="386.33529" width="0.21315" height="22.6673" transform="translate(-324.35143 -145.05887) rotate(-45.00781)" fill="#231f20"/>
    <rect x="97.53244" y="362.77568" width="0.21315" height="18.19078" transform="translate(-313.6366 -170.91377) rotate(-44.99907)" fill="#231f20"/>
    <rect x="124.96514" y="384.86137" width="0.21307" height="23.95225" transform="translate(-338.61496 -111.27353) rotate(-50.0043)" fill="#231f20"/>
    <rect x="96.63504" y="364.115" width="0.21307" height="17.89988" transform="translate(-330.49794 -141.52593) rotate(-49.99513)" fill="#231f20"/>
    <rect x="126.632" y="383.16241" width="0.21345" height="25.42706" transform="translate(-349.54384 -76.17253) rotate(-55.00959)" fill="#231f20"/>
    <rect x="95.80132" y="365.42289" width="0.21345" height="17.73097" transform="matrix(0.57348, -0.81922, 0.81922, 0.57348, -345.00192, -110.65884)" fill="#231f20"/>
    <rect x="128.32886" y="381.21939" width="0.21338" height="27.09649" transform="translate(-356.94262 -40.27186) rotate(-59.99774)" fill="#231f20"/>
    <rect x="95.03601" y="366.70922" width="0.21338" height="17.67387" transform="translate(-356.94027 -78.71987) rotate(-59.9968)" fill="#231f20"/>
    <rect x="128.43767" y="380.03119" width="0.21309" height="25.42683" transform="translate(-361.0088 -5.64211) rotate(-64.99467)" fill="#231f20"/>
    <rect x="94.33066" y="367.97755" width="0.21309" height="17.72897" transform="translate(-366.30125 -45.65737) rotate(-65.00599)" fill="#231f20"/>
    <rect x="128.43965" y="378.84609" width="0.2135" height="23.95581" transform="translate(-361.95805 29.0666) rotate(-69.99809)" fill="#231f20"/>
    <rect x="93.6846" y="369.21889" width="0.2135" height="17.90258" transform="translate(-372.93856 -11.87979) rotate(-70.00369)" fill="#231f20"/>
    <rect x="128.34399" y="377.65817" width="0.21289" height="22.66489" transform="translate(-359.81629 63.51383) rotate(-74.99943)" fill="#231f20"/>
    <rect x="93.09866" y="370.45277" width="0.21295" height="18.18896" transform="translate(-376.81799 22.49206) rotate(-75.0026)" fill="#231f20"/>
    <rect x="128.15851" y="376.46715" width="0.21309" height="21.55087" transform="translate(-354.6555 97.42593) rotate(-79.99702)" fill="#231f20"/>
    <rect x="92.57409" y="371.6681" width="0.21309" height="18.60194" transform="translate(-377.87523 57.28496) rotate(-80.00966)" fill="#231f20"/>
    <rect x="127.90055" y="375.27903" width="0.21316" height="20.59799" transform="translate(-346.54355 130.63158) rotate(-85.00101)" fill="#231f20"/>
    <rect x="92.10931" y="372.87722" width="0.21316" height="19.13436" transform="translate(-376.09343 92.12162) rotate(-85.00185)" fill="#231f20"/>
    <rect x="38.49208" y="35.00226" width="19.79499" height="0.21317" fill="#231f20"/>
    <rect x="2.63277" y="35.00226" width="19.79916" height="0.21317" fill="#231f20"/>
    <rect x="117.71093" y="382.33781" width="19.13436" height="0.21316" transform="translate(-112.4069 -336.20104) rotate(-5.04245)" fill="#231f20"/>
    <rect x="81.17935" y="385.47146" width="20.6065" height="0.21314" transform="matrix(0.9963, -0.08596, 0.08596, 0.9963, -112.08886, -339.57769)" fill="#231f20"/>
    <rect x="117.51242" y="380.86253" width="18.60604" height="0.21309" transform="translate(-143.60212 -321.01083) rotate(-10.01446)" fill="#231f20"/>
    <rect x="80.44503" y="387.13604" width="21.55928" height="0.21309" transform="translate(-145.23533 -327.10437) rotate(-10.01446)" fill="#231f20"/>
    <rect x="117.19407" y="379.43871" width="18.2026" height="0.21292" transform="translate(-172.98361 -303.40034) rotate(-14.96029)" fill="#231f20"/>
    <polygon points="0.831 43.158 0.776 42.953 22.677 37.086 22.733 37.292 0.831 43.158" fill="#231f20"/>
    <rect x="116.75103" y="378.06135" width="17.91613" height="0.2135" transform="translate(-200.79661 -283.26331) rotate(-19.95447)" fill="#231f20"/>
    <rect x="78.96141" y="390.71725" width="23.96383" height="0.2135" transform="translate(-207.20292 -294.36813) rotate(-19.95447)" fill="#231f20"/>
    <rect x="116.19067" y="376.72924" width="17.75369" height="0.21309" transform="translate(-226.63729 -260.88271) rotate(-24.96279)" fill="#231f20"/>
    <rect x="78.22803" y="392.63806" width="25.43476" height="0.21309" transform="translate(-236.5389 -273.79708) rotate(-24.96279)" fill="#231f20"/>
    <rect x="115.51673" y="375.43301" width="17.69889" height="0.21338" transform="translate(-250.2402 -236.54372) rotate(-29.96674)" fill="#231f20"/>
    <rect x="77.52451" y="394.65657" width="27.08472" height="0.21338" transform="translate(-264.29391 -250.60674) rotate(-29.96674)" fill="#231f20"/>
    <rect x="114.71842" y="374.1754" width="17.75212" height="0.21345" transform="translate(-271.57976 -210.33308) rotate(-34.99202)" fill="#231f20"/>
    <rect x="80.05069" y="395.76714" width="25.41768" height="0.21345" transform="translate(-289.53579 -224.11266) rotate(-34.99202)" fill="#231f20"/>
    <rect x="113.79947" y="372.94987" width="17.92712" height="0.21307" transform="translate(-290.38252 -182.64249) rotate(-40.00626)" fill="#231f20"/>
    <rect x="82.44987" y="396.73096" width="23.94906" height="0.21307" transform="translate(-312.30267 -195.2952) rotate(-40.00626)" fill="#231f20"/>
    <rect x="112.75768" y="371.75824" width="18.21168" height="0.21315" transform="translate(-306.54013 -153.78092) rotate(-45)" fill="#231f20"/>
    <rect x="84.72" y="397.56445" width="22.67024" height="0.21315" transform="translate(-332.34698 -164.47174) rotate(-45)" fill="#231f20"/>
    <rect x="111.58125" y="370.59018" width="18.62041" height="0.21294" transform="translate(-320.05527 -123.88195) rotate(-49.99374)" fill="#231f20"/>
    <polygon points="11.522 57.846 11.359 57.709 25.22 41.192 25.383 41.329 11.522 57.846" fill="#231f20"/>
    <polygon points="35.156 28.596 34.981 28.474 45.964 12.784 46.138 12.907 35.156 28.596" fill="#231f20"/>
    <polygon points="14.12 58.636 13.946 58.513 25.768 41.626 25.943 41.748 14.12 58.636" fill="#231f20"/>
    <rect x="108.8082" y="368.33897" width="19.80944" height="0.2132" transform="translate(-338.97951 -61.98671) rotate(-59.97732)" fill="#231f20"/>
    <rect x="90.87636" y="399.40185" width="19.80944" height="0.21302" transform="translate(-374.8343 -61.99184) rotate(-59.97732)" fill="#231f20"/>
    <rect x="107.19251" y="367.25611" width="20.61476" height="0.21309" transform="matrix(0.42203, -0.90658, 0.90658, 0.42203, -344.41792, -30.02008)" fill="#231f20"/>
    <rect x="92.73454" y="399.82628" width="19.14988" height="0.21309" transform="translate(-382.72507 -24.96683) rotate(-65.03721)" fill="#231f20"/>
    <polygon points="33.31 27.603 33.11 27.53 40.485 7.266 40.686 7.34 33.31 27.603" fill="#231f20"/>
    <polygon points="21.449 60.184 21.249 60.111 27.614 42.618 27.814 42.692 21.449 60.184" fill="#231f20"/>
    <polygon points="32.643 27.381 32.437 27.326 38.304 5.425 38.51 5.48 32.643 27.381" fill="#231f20"/>
    <polygon points="23.776 60.482 23.57 60.427 28.281 42.841 28.487 42.896 23.776 60.482" fill="#231f20"/>
    <polygon points="31.963 27.223 31.753 27.186 35.91 3.597 36.12 3.633 31.963 27.223" fill="#231f20"/>
    <polygon points="26.063 60.686 25.853 60.65 28.965 42.999 29.175 43.036 26.063 60.686" fill="#231f20"/>
    <polygon points="31.27 27.12 31.057 27.102 33.27 1.786 33.482 1.804 31.27 27.12" fill="#231f20"/>
    <polygon points="28.319 60.801 28.107 60.782 29.654 43.102 29.867 43.12 28.319 60.801" fill="#231f20"/>
  </g>
</svg>
