<svg xmlns="http://www.w3.org/2000/svg" width="120" height="120" viewBox="0 0 60.937 60.834"><g fill="#000000" data-name="Layer 2"><path d="M30.038 43.141h.853v7.291h-.853zM30.038 14.171h.853v12.91h-.853z"/><path d="m30.739 43.148.85-.074.64 7.295-.85.074zM28.295 15.27l.85-.075 1.04 11.878-.85.074z"/><path d="m31.439 43.091.84-.148 1.287 7.312-.84.148zM26.733 16.4l.84-.148 1.919 10.88-.84.148z"/><path d="m32.129 42.978.824-.22 1.965 7.337-.824.22zM25.311 17.53l.824-.22 2.66 9.933-.823.221z"/><path d="m32.81 42.801.8-.291 2.681 7.363-.8.291zM24.026 18.679l.802-.292 3.287 9.033-.802.292z"/><path d="m33.472 42.567.773-.36 3.444 7.388-.773.36zM22.86 19.813l.773-.36 3.824 8.202-.773.36z"/><path d="m34.107 42.275.739-.427 4.275 7.406-.738.426zM21.794 20.946l.739-.426 4.284 7.422-.739.426z"/><path d="m34.72 41.931.698-.489 5.175 7.393-.698.489zM20.82 22.085l.7-.489 4.685 6.693-.699.49z"/><path d="m35.296 41.535.654-.548 6.169 7.35-.654.548zM19.931 23.224l.654-.549 5.043 6.012-.653.548z"/><path d="m35.837 41.089.603-.604 7.257 7.252-.603.604zM19.108 24.36l.603-.603 5.376 5.376-.603.603z"/><path d="m36.338 40.6.548-.654 8.45 7.085-.548.654zM18.347 25.498l.548-.654 5.692 4.78-.549.653z"/><path d="m36.793 40.066.49-.698 9.75 6.826-.49.698zM17.635 26.65l.489-.699 6.007 4.204-.49.699z"/><path d="m37.204 39.495.427-.74 11.17 6.451-.426.74zM16.975 27.817l.426-.74 6.322 3.65-.426.739z"/><path d="m37.558 38.889.36-.773 10.804 5.035-.36.773zM16.36 29.006l.36-.773 6.647 3.1-.36.773z"/><path d="m37.86 38.26.292-.8 10.377 3.776-.292.8zM15.785 30.223l.29-.801 6.988 2.54-.291.801z"/><path d="m38.108 37.601.221-.824 9.92 2.657-.22.824zM15.249 31.474l.22-.824 7.346 1.97-.22.824z"/><path d="m38.294 36.922.148-.84 9.465 1.668-.148.839zM14.748 32.77l.148-.838 7.733 1.364-.148.839z"/><path d="m38.426 36.237.074-.85 9.004.79-.074.849zM14.29 34.123l.074-.85 8.135.712-.074.85z"/><path d="M38.492 34.683h8.561v.853h-8.561zM13.871 34.683h8.561v.853h-8.561z"/><path d="m38.425 33.986 8.135-.713.075.85-8.135.713zM13.416 36.178l9.008-.79.075.849-9.008.79z"/><path d="m38.295 33.295 7.733-1.365.148.839-7.733 1.365zM13.012 37.755l9.469-1.672.148.84-9.469 1.672z"/><path d="m38.11 32.622 7.355-1.971.221.824-7.355 1.97zM12.67 39.438l9.926-2.66.22.825-9.925 2.66z"/><path d="m37.86 31.963 6.992-2.547.292.801-6.991 2.548zM12.395 41.234l10.377-3.775.292.8-10.378 3.776z"/><path d="m37.558 31.332 6.659-3.103.36.773-6.659 3.104zM12.203 43.156l10.803-5.04.36.773-10.803 5.04z"/><path d="m37.205 30.727 6.336-3.657.426.739-6.336 3.657zM12.131 45.202l11.167-6.446.426.739-11.166 6.445z"/><path d="m36.793 30.155 6.02-4.216.49.699-6.02 4.216zM13.894 46.194l9.747-6.825.49.698-9.747 6.825z"/><path d="m36.338 29.625 5.703-4.79.549.653-5.703 4.79zM15.593 47.032l8.444-7.087.548.653-8.444 7.087z"/><path d="m35.838 29.134 5.387-5.387.603.604-5.386 5.386zM17.228 47.743l7.256-7.256.603.603-7.256 7.256z"/><path d="m35.296 28.687 5.053-6.024.653.548-5.052 6.024zM18.806 48.341l6.168-7.354.654.548-6.169 7.355z"/><path d="m34.72 28.29 4.693-6.702.698.488-4.692 6.703zM20.327 48.845l5.179-7.402.699.489-5.18 7.402z"/><path d="m34.108 27.943 4.287-7.428.74.426-4.289 7.428zM21.802 49.26l4.277-7.41.739.426-4.277 7.41z"/><path d="m33.47 27.654 3.827-8.202.773.361-3.827 8.202zM23.234 49.603l3.451-7.396.773.361-3.45 7.396z"/><path d="m32.81 27.421 3.29-9.043.8.291-3.29 9.043zM24.633 49.882l2.68-7.372.802.291-2.68 7.372z"/><path d="m32.129 27.243 2.66-9.93.824.221-2.66 9.93zM26.006 50.095l1.966-7.337.824.22-1.966 7.338z"/><path d="m31.438 27.13 1.92-10.876.84.148-1.92 10.876zM27.358 50.26l1.292-7.316.84.148-1.292 7.316z"/><path d="m30.739 27.074 1.035-11.869.85.074-1.035 11.87zM28.695 50.367l.637-7.295.85.074-.637 7.295z"/></g><g fill="#000000" data-name="Layer 3"><path d="M30.251 43.141h.426v12.436h-.426zM30.251 7.158h.426v19.923h-.426zM30.951 43.13l.425-.038 1.087 12.433-.425.037zM27.929 8.592l.424-.037 1.62 18.537-.424.037zM31.649 43.054l.42-.074 2.186 12.424-.42.074zM25.829 10.065l.42-.074 3.03 17.177-.419.074zM32.335 42.923l.411-.11 3.321 12.402-.411.11zM23.931 11.553l.412-.11L28.589 27.3l-.412.11zM33.01 42.727l.4-.145 4.502 12.372-.4.146zM22.202 13.046l.4-.146 5.312 14.594-.4.145zM33.665 42.477l.386-.18 5.742 12.312-.386.18zM20.636 14.539l.386-.18 6.242 13.387-.386.18zM34.292 42.169l.368-.213 7.056 12.222-.369.213zM19.2 16.026l.368-.213 7.065 12.236-.37.213zM34.894 41.81l.35-.246 8.459 12.083-.35.245zM17.881 17.516l.35-.245 7.797 11.14-.35.245zM35.46 41.397l.326-.274 9.968 11.882-.327.274zM16.671 19.006l.327-.273 8.467 10.091-.327.274zM35.988 40.939l.302-.302L47.886 52.23l-.3.3zM15.553 20.503l.302-.301 9.08 9.081-.3.302zM36.475 40.435l.273-.326 13.345 11.195-.274.327zM14.51 22.005l.274-.326 9.665 8.11-.273.325zM36.916 39.892l.245-.35 15.232 10.664-.244.349zM13.544 23.525l.244-.35 10.22 7.155-.244.35zM37.312 39.31l.213-.37 17.253 9.964-.213.369zM12.635 25.065l.213-.369 10.769 6.216-.213.37zM37.647 38.696l.18-.387 16.858 7.863-.18.386zM11.786 26.639l.18-.386 11.31 5.274-.18.386zM37.933 38.059l.146-.4 16.38 5.96-.145.4zM10.993 28.249l.146-.4 11.852 4.314-.145.4zM38.164 37.396l.11-.412 15.843 4.246-.11.412zM10.243 29.914l.11-.413 12.407 3.325-.11.413zM38.331 36.713l.074-.42 15.284 2.695-.074.42zM9.546 31.64l.073-.42 12.974 2.285-.074.42zM38.444 36.025l.037-.424 14.704 1.283-.037.424zM8.903 33.437l.037-.424 13.54 1.185-.037.424zM38.492 34.896h14.12v.426h-14.12zM8.307 34.896h14.125v.426H8.307zM38.443 34.195l13.54-1.181.038.424-13.54 1.182zM7.734 36.885l14.71-1.283.037.424L7.77 37.31zM38.333 33.506l12.972-2.291.074.42-12.972 2.29zM7.23 38.992l15.289-2.7.074.42-15.289 2.7zM55.801 28.535h-.004v-.427zM38.163 32.825l12.412-3.322.11.412-12.411 3.323zM6.794 41.228l15.856-4.244.11.412-15.856 4.245zM37.933 32.162l11.866-4.317.145.4-11.866 4.318zM6.46 43.621l16.386-5.961.145.4-16.385 5.962zM37.828 31.913l-.181-.387 11.414-5.302.002.218.088.188zM6.232 46.166l16.867-7.852.18.386-16.867 7.852zM37.313 30.915l10.78-6.23.212.37-10.78 6.229zM6.161 48.899l17.24-9.963.214.369-17.24 9.963zM36.916 30.331l10.235-7.169.245.349-10.235 7.17zM8.535 50.195l15.234-10.646.244.35L8.779 50.544zM36.475 29.787l9.678-8.123.274.326-9.678 8.123zM10.832 51.306l13.342-11.198.274.326-13.343 11.198zM35.99 29.285l9.096-9.096.3.301-9.095 9.096zM13.038 52.234l11.597-11.597.3.301L13.34 52.535zM35.462 28.827l8.47-10.105.327.274-8.47 10.104zM15.164 53.01l9.975-11.885.326.274-9.974 11.884zM34.89 28.41l7.81-11.144.349.244-7.81 11.144zM17.215 53.653l8.47-12.085.35.245-8.47 12.085zM34.293 28.05l7.066-12.243.369.213-7.067 12.242zM19.203 54.188l7.06-12.232.37.213-7.061 12.232zM33.668 27.748l6.234-13.391.386.18-6.233 13.39zM21.124 54.615l5.76-12.315.385.18-5.76 12.315zM33.41 27.64l-.401-.146 5.313-14.589.194.07.219-.002-.013.077zM23.011 54.959l4.503-12.377.4.146-4.502 12.376zM32.336 27.298l4.248-15.855.411.11-4.248 15.855zM24.847 55.217l3.336-12.403.411.11-3.336 12.404zM31.646 27.167l3.032-17.173.42.075-3.033 17.172zM26.668 55.408 28.86 42.98l.42.074-2.192 12.428zM30.943 27.091l1.635-18.527.424.037-1.634 18.527zM28.468 55.526l1.073-12.434.424.037-1.072 12.433z"/></g><g fill="#000000" data-name="Layer 4"><path d="M30.358 43.141h.213v17.693h-.213zM30.358 0h.213v27.081h-.213zM32.601 60.801 31.057 43.12l.213-.018 1.543 17.68zM29.654 27.12 27.442 1.787l.212-.018 2.213 25.333zM34.861 60.678l-3.108-17.642.21-.037 3.108 17.642zM28.965 27.223 24.804 3.625l.21-.037 4.161 23.598zM37.148 60.478l-4.711-17.582.206-.055 4.711 17.582zM28.281 27.381 22.414 5.48l.206-.055 5.867 21.901zM39.47 60.175l-6.36-17.483.2-.074 6.361 17.485zM27.614 27.603 20.238 7.344l.201-.073 7.375 20.259zM33.761 42.431l.193-.09 8.088 17.343-.193.09zM18.264 9.202l.193-.09 8.71 18.678-.193.09zM34.383 42.115l.185-.106 9.9 17.148-.185.106zM16.457 11.061l.184-.106 9.9 17.147-.185.107zM46.795 58.623 34.981 41.748l.175-.122L46.97 58.5zM25.768 28.596 14.794 12.919l.175-.122 10.974 15.677zM49.393 57.838 35.541 41.329l.163-.137L49.556 57.7zM25.22 29.03 13.261 14.777l.163-.137 11.959 14.252zM36.063 40.863l.15-.15 16.03 16.025-.15.151zM11.847 16.647l.15-.15L24.862 29.36l-.151.15zM36.543 40.353l.137-.163 18.35 15.395-.138.163zM10.533 18.525l.136-.163 13.712 11.507-.137.163zM36.977 39.805l.122-.175 20.83 14.581-.121.174zM9.3 20.422l.122-.175 14.526 10.169-.123.174zM37.364 39.217l.107-.184L60.936 52.58l-.107.185zM8.151 22.351l.107-.184 15.306 8.838-.107.184zM37.692 38.599l.09-.193 23.044 10.748-.09.193zM7.073 24.325l.09-.193 16.07 7.49-.09.194zM37.97 37.959l.072-.2 22.511 8.194-.072.2zM6.058 26.341l.073-.2 16.824 6.122-.073.2zM38.191 37.292l.056-.206 21.892 5.867-.055.205zM5.108 28.428l.055-.205 17.57 4.706-.055.206zM38.35 36.607l.037-.21 21.223 3.744-.037.21zM4.217 30.592l.037-.21 18.32 3.228-.037.21zM38.453 35.918l.019-.212 20.52 1.795-.02.212zM3.39 32.85l.02-.213 19.06 1.667-.018.212zM38.492 35.002h19.795v.213H38.492zM2.633 35.002h19.799v.213H2.633zM38.454 34.311l19.06-1.682.018.213-19.06 1.681zM1.925 37.489l20.53-1.771.019.212L1.944 37.7zM38.35 33.614l18.323-3.235.037.21-18.323 3.235zM1.306 40.144l21.23-3.749.037.21-21.23 3.749zM38.19 32.924l17.586-4.7.055.207-17.586 4.699zM.831 43.158l-.055-.205 21.901-5.867.056.206zM37.967 32.256l16.84-6.114.073.2-16.84 6.115zM.359 45.945l22.525-8.179.073.2L.432 46.145zM37.69 31.617l16.096-7.493.09.193L37.78 31.81zM.086 49.147l23.059-10.734.09.193L.175 49.34zM37.362 31l15.333-8.841.106.184-15.333 8.84zM-.003 52.567l23.464-13.529.107.185L.104 52.752zM36.976 30.417l14.543-10.18.122.174-14.543 10.18zM3.002 54.206 23.825 39.63l.122.174L3.124 54.381zM36.543 29.87l13.732-11.525.137.163L36.68 30.033zM5.899 55.586 24.243 40.19l.137.163L6.036 55.749zM36.064 29.36l12.878-12.878.15.15L36.216 29.51zM8.68 56.742l16.03-16.03.15.15L8.83 56.894zM35.54 28.892l11.97-14.263.163.137-11.97 14.262zM11.522 57.846l-.163-.137L25.22 41.192l.163.137zM35.156 28.596l-.175-.122 10.983-15.69.174.123zM14.12 58.636l-.174-.123 11.822-16.887.175.122zM34.38 28.1 44.29 10.95l.185.106-9.912 17.152zM16.448 59.163l9.911-17.151.185.107-9.912 17.15zM33.768 27.794l8.7-18.69.193.09-8.7 18.69zM18.887 59.7l8.082-17.361.193.09-8.082 17.36zM33.31 27.603l-.2-.073 7.375-20.264.201.074zM21.449 60.184l-.2-.073 6.365-17.493.2.074zM32.643 27.381l-.206-.055 5.867-21.901.206.055zM23.776 60.482l-.206-.055 4.711-17.586.206.055zM31.963 27.223l-.21-.037L35.91 3.597l.21.036zM26.063 60.686l-.21-.036 3.112-17.651.21.037zM31.27 27.12l-.213-.018L33.27 1.786l.212.018zM28.319 60.801l-.212-.019 1.547-17.68.213.018z"/></g></svg>