<?xml version="1.0" encoding="UTF-8"?>
<svg id="Layer_1" data-name="Layer 1" xmlns="http://www.w3.org/2000/svg" viewBox="0 0 61.62 61.33">
  <defs>
    <style>
      .cls-1, .cls-2, .cls-3 {
        fill: #000000;
        stroke: #000000;
        stroke-miterlimit: 10;
      }

      .cls-2 {
        stroke-width: .5px;
      }

      .cls-3 {
        stroke-width: .75px;
      }
    </style>
  </defs>
  <rect class="cls-1" x="30.38" y="43.39" width=".85" height="7.29"/>
  <rect class="cls-1" x="30.38" y="14.42" width=".85" height="12.91"/>
  <rect class="cls-1" x="32.42" y="43.21" width=".85" height="7.42" transform="translate(-7.64 6.41) rotate(-9.99)"/>
  <rect class="cls-1" x="28.03" y="16.49" width=".85" height="11.05" transform="translate(-3.39 5.28) rotate(-10)"/>
  <rect class="cls-1" x="34.47" y="42.67" width=".85" height="7.84" transform="translate(-13.84 14.75) rotate(-20.01)"/>
  <rect class="cls-1" x="25.99" y="18.49" width=".85" height="9.61" transform="translate(-6.37 10.44) rotate(-19.99)"/>
  <rect class="cls-1" x="36.53" y="41.74" width=".85" height="8.55" transform="translate(-18.06 24.65) rotate(-30)"/>
  <rect class="cls-1" x="24.22" y="20.41" width=".85" height="8.57" transform="translate(-9.04 15.63) rotate(-30)"/>
  <rect class="cls-1" x="38.62" y="40.39" width=".85" height="9.6" transform="translate(-19.91 35.68) rotate(-40.01)"/>
  <rect class="cls-1" x="22.69" y="22.28" width=".85" height="7.85" transform="translate(-11.43 20.99) rotate(-40)"/>
  <rect class="cls-1" x="40.75" y="38.55" width=".85" height="11.03" transform="translate(-19.04 47.31) rotate(-50.02)"/>
  <rect class="cls-1" x="21.38" y="24.09" width=".85" height="7.43" transform="translate(-13.51 26.63) rotate(-49.98)"/>
  <rect class="cls-1" x="42.92" y="36.15" width=".85" height="12.9" transform="translate(-15.22 58.83) rotate(-59.99)"/>
  <rect class="cls-1" x="20.26" y="25.87" width=".85" height="7.3" transform="translate(-15.22 32.68) rotate(-60.01)"/>
  <rect class="cls-1" x="43.11" y="34.48" width=".85" height="11.04" transform="translate(-8.94 67.23) rotate(-70)"/>
  <rect class="cls-1" x="19.34" y="27.62" width=".85" height="7.44" transform="translate(-16.44 39.21) rotate(-70.02)"/>
  <rect class="cls-1" x="43.02" y="32.78" width=".85" height="9.61" transform="translate(-1.11 73.85) rotate(-80.01)"/>
  <rect class="cls-1" x="18.6" y="29.36" width=".85" height="7.85" transform="translate(-17.05 46.24) rotate(-80)"/>
  <rect class="cls-1" x="38.83" y="34.93" width="8.56" height=".85"/>
  <rect class="cls-1" x="14.21" y="34.93" width="8.56" height=".85"/>
  <rect class="cls-1" x="38.65" y="32.86" width="7.85" height=".85" transform="translate(-5.14 7.91) rotate(-10.01)"/>
  <rect class="cls-1" x="13.35" y="37.16" width="9.62" height=".85" transform="translate(-6.26 3.73) rotate(-10.01)"/>
  <rect class="cls-1" x="38.12" y="30.91" width="7.44" height=".85" transform="translate(-8.2 16.22) rotate(-20.02)"/>
  <rect class="cls-1" x="12.55" y="39.57" width="11.04" height=".85" transform="translate(-12.59 8.59) rotate(-19.99)"/>
  <rect class="cls-1" x="37.27" y="29.09" width="7.32" height=".85" transform="translate(-9.28 24.41) rotate(-29.99)"/>
  <rect class="cls-1" x="11.82" y="42.17" width="12.89" height=".85" transform="translate(-18.85 14.84) rotate(-29.99)"/>
  <rect class="cls-1" x="36.08" y="27.38" width="7.45" height=".85" transform="translate(-8.56 32.12) rotate(-40.03)"/>
  <rect class="cls-1" x="14.92" y="43.64" width="11.02" height=".85" transform="translate(-23.55 23.45) rotate(-40.01)"/>
  <rect class="cls-1" x="34.56" y="25.77" width="7.86" height=".85" transform="translate(-6.32 38.85) rotate(-50.01)"/>
  <rect class="cls-1" x="17.76" y="44.76" width="9.6" height=".85" transform="translate(-26.56 33.43) rotate(-50.01)"/>
  <rect class="cls-1" x="32.67" y="24.27" width="8.58" height=".85" transform="translate(-2.9 44.36) rotate(-60.01)"/>
  <rect class="cls-1" x="20.37" y="45.59" width="8.56" height=".85" transform="translate(-27.53 44.36) rotate(-60.01)"/>
  <rect class="cls-1" x="30.39" y="22.87" width="9.62" height=".85" transform="translate(1.27 48.41) rotate(-70.01)"/>
  <rect class="cls-1" x="22.79" y="46.16" width="7.84" height=".85" transform="translate(-26.2 55.78) rotate(-70.02)"/>
  <rect class="cls-1" x="27.64" y="21.59" width="11.04" height=".85" transform="translate(5.71 50.84) rotate(-79.99)"/>
  <rect class="cls-1" x="25.05" y="46.5" width="7.43" height=".85" transform="translate(-22.45 67.1) rotate(-79.99)"/>
  <rect class="cls-3" x="30.59" y="43.39" width=".43" height="12.44"/>
  <rect class="cls-3" x="30.59" y="7.41" width=".43" height="19.92"/>
  <rect class="cls-3" x="33.08" y="43.17" width=".43" height="12.61" transform="translate(-8.07 6.52) rotate(-9.98)"/>
  <rect class="cls-3" x="27.68" y="10.14" width=".43" height="17.44" transform="translate(-2.85 5.13) rotate(-10.01)"/>
  <rect class="cls-3" x="35.59" y="42.51" width=".43" height="13.17" transform="translate(-14.63 15.2) rotate(-20)"/>
  <rect class="cls-3" x="25.19" y="12.75" width=".43" height="15.53" transform="translate(-5.49 9.93) rotate(-20)"/>
  <rect class="cls-3" x="38.13" y="41.37" width=".43" height="14.11" transform="translate(-19.07 25.66) rotate(-30)"/>
  <rect class="cls-3" x="23.04" y="15.22" width=".43" height="14.13" transform="translate(-8.03 14.61) rotate(-30)"/>
  <rect class="cls-3" x="40.73" y="39.7" width=".43" height="15.51" transform="translate(-20.92 37.41) rotate(-39.99)"/>
  <rect class="cls-3" x="21.2" y="17.58" width=".43" height="13.17" transform="translate(-10.52 19.41) rotate(-40)"/>
  <rect class="cls-3" x="43.41" y="37.41" width=".43" height="17.42" transform="translate(-19.75 49.9) rotate(-50)"/>
  <rect class="cls-3" x="19.61" y="19.84" width=".43" height="12.62" transform="translate(-12.95 24.53) rotate(-50)"/>
  <rect class="cls-3" x="46.17" y="34.39" width=".43" height="19.92" transform="translate(-15.22 62.34) rotate(-60)"/>
  <rect class="cls-3" x="18.25" y="22.02" width=".43" height="12.43" transform="translate(-15.22 30.12) rotate(-60.01)"/>
  <rect class="cls-3" x="46.32" y="32.37" width=".43" height="17.43" transform="translate(-7.99 70.77) rotate(-70.01)"/>
  <rect class="cls-3" x="17.12" y="24.15" width=".43" height="12.61" transform="translate(-17.21 36.33) rotate(-70)"/>
  <rect class="cls-3" x="46.14" y="30.34" width=".43" height="15.52" transform="translate(.78 77.13) rotate(-80)"/>
  <rect class="cls-3" x="16.2" y="26.24" width=".43" height="13.17" transform="translate(-18.76 43.29) rotate(-80.01)"/>
  <rect class="cls-3" x="38.83" y="35.15" width="14.12" height=".43"/>
  <rect class="cls-3" x="8.65" y="35.15" width="14.12" height=".43"/>
  <rect class="cls-3" x="38.61" y="32.61" width="13.17" height=".43" transform="translate(-5.02 8.36) rotate(-10.01)"/>
  <rect class="cls-3" x="7.49" y="37.89" width="15.52" height=".43" transform="translate(-6.39 3.23) rotate(-10.01)"/>
  <rect class="cls-3" x="37.97" y="30.24" width="12.63" height=".43" transform="translate(-7.74 16.97) rotate(-19.99)"/>
  <rect class="cls-3" x="6.35" y="40.88" width="17.44" height=".43" transform="translate(-13.14 7.63) rotate(-19.99)"/>
  <rect class="cls-3" x="36.93" y="28.02" width="12.45" height=".43" transform="translate(-8.34 25.38) rotate(-30.02)"/>
  <rect class="cls-3" x="5.27" y="44.14" width="19.91" height=".43" transform="translate(-20.15 13.57) rotate(-30.02)"/>
  <rect class="cls-3" x="35.47" y="25.93" width="12.63" height=".43" transform="translate(-7.02 32.98) rotate(-40.01)"/>
  <rect class="cls-3" x="9.27" y="45.91" width="17.42" height=".43" transform="translate(-25.44 22.35) rotate(-40.01)"/>
  <rect class="cls-3" x="33.61" y="23.95" width="13.19" height=".43" transform="translate(-4.14 39.45) rotate(-50.03)"/>
  <rect class="cls-3" x="12.9" y="47.24" width="15.52" height=".43" transform="translate(-28.97 32.77) rotate(-49.99)"/>
  <rect class="cls-3" x="31.28" y="22.07" width="14.14" height=".43" transform="translate(-.12 44.36) rotate(-60.01)"/>
  <rect class="cls-3" x="16.2" y="48.21" width="14.12" height=".43" transform="translate(-30.31 44.36) rotate(-60.01)"/>
  <polygon class="cls-3" points="33.75 27.89 33.35 27.74 38.66 13.15 38.86 13.23 39.06 13.3 39.06 13.3 33.75 27.89"/>
  <rect class="cls-3" x="19.22" y="48.88" width="13.17" height=".43" transform="translate(-29.15 56.56) rotate(-70.01)"/>
  <rect class="cls-3" x="24.99" y="18.65" width="17.44" height=".43" transform="translate(9.27 48.79) rotate(-79.99)"/>
  <rect class="cls-3" x="22.01" y="49.27" width="12.62" height=".43" transform="translate(-25.33 68.77) rotate(-80)"/>
  <rect class="cls-2" x="30.7" y="43.39" width=".21" height="17.69"/>
  <rect class="cls-2" x="30.7" y=".25" width=".21" height="27.08"/>
  <polygon class="cls-2" points="35.2 60.93 32.09 43.29 32.3 43.25 35.41 60.89 35.2 60.93"/>
  <polygon class="cls-2" points="29.31 27.47 25.15 3.88 25.36 3.84 29.52 27.44 29.31 27.47"/>
  <polygon class="cls-2" points="39.81 60.43 33.45 42.94 33.65 42.87 40.01 60.35 39.81 60.43"/>
  <polygon class="cls-2" points="27.96 27.85 20.58 7.59 20.78 7.52 28.16 27.78 27.96 27.85"/>
  <rect class="cls-2" x="39.66" y="40.99" width=".21" height="19.8" transform="translate(-20.11 26.7) rotate(-30)"/>
  <rect class="cls-2" x="21.73" y="9.93" width=".21" height="19.8" transform="translate(-6.99 13.58) rotate(-30)"/>
  <polygon class="cls-2" points="49.73 58.09 35.88 41.58 36.05 41.44 49.9 57.95 49.73 58.09"/>
  <polygon class="cls-2" points="25.56 29.28 13.6 15.03 13.77 14.89 25.72 29.14 25.56 29.28"/>
  <rect class="cls-2" x="46.02" y="36.24" width=".21" height="23.95" transform="translate(-20.46 52.57) rotate(-50)"/>
  <rect class="cls-2" x="17.69" y="15.5" width=".21" height="17.9" transform="translate(-12.37 22.36) rotate(-50)"/>
  <rect class="cls-2" x="49.39" y="32.6" width=".21" height="27.1" transform="translate(-15.22 65.93) rotate(-60)"/>
  <rect class="cls-2" x="16.09" y="18.09" width=".21" height="17.67" transform="translate(-15.22 27.49) rotate(-60)"/>
  <rect class="cls-2" x="49.5" y="30.23" width=".21" height="23.96" transform="translate(-7.02 74.38) rotate(-70)"/>
  <rect class="cls-2" x="14.74" y="20.6" width=".21" height="17.9" transform="translate(-18 33.4) rotate(-70)"/>
  <rect class="cls-2" x="49.21" y="27.85" width=".21" height="21.55" transform="translate(2.72 80.49) rotate(-80)"/>
  <rect class="cls-2" x="13.63" y="23.05" width=".21" height="18.6" transform="translate(-20.51 40.27) rotate(-80.01)"/>
  <rect class="cls-2" x="38.83" y="35.25" width="19.79" height=".21"/>
  <rect class="cls-2" x="2.97" y="35.25" width="19.8" height=".21"/>
  <rect class="cls-2" x="38.57" y="32.24" width="18.61" height=".21" transform="translate(-4.9 8.82) rotate(-10.01)"/>
  <rect class="cls-2" x="1.5" y="38.52" width="21.56" height=".21" transform="translate(-6.53 2.72) rotate(-10.01)"/>
  <rect class="cls-2" x="37.81" y="29.44" width="17.92" height=".21" transform="translate(-7.28 17.73) rotate(-19.95)"/>
  <rect class="cls-2" x=".02" y="42.1" width="23.96" height=".21" transform="translate(-13.68 6.63) rotate(-19.95)"/>
  <rect class="cls-2" x="36.57" y="26.81" width="17.7" height=".21" transform="translate(-7.37 26.29) rotate(-29.97)"/>
  <rect class="cls-2" x="-1.42" y="46.04" width="27.08" height=".21" transform="translate(-21.43 12.22) rotate(-29.97)"/>
  <rect class="cls-2" x="34.86" y="24.33" width="17.93" height=".21" transform="translate(-5.46 33.89) rotate(-40.01)"/>
  <rect class="cls-2" x="3.51" y="48.11" width="23.95" height=".21" transform="translate(-27.38 21.24) rotate(-40.01)"/>
  <rect class="cls-2" x="32.64" y="21.97" width="18.62" height=".21" transform="translate(-1.93 40.02) rotate(-49.99)"/>
  <polygon class="cls-2" points="11.86 58.1 11.7 57.96 25.56 41.44 25.72 41.58 11.86 58.1"/>
  <rect class="cls-2" x="29.86" y="19.72" width="19.81" height=".21" transform="translate(2.7 44.34) rotate(-59.98)"/>
  <rect class="cls-2" x="11.93" y="50.78" width="19.81" height=".21" transform="translate(-33.15 44.34) rotate(-59.98)"/>
  <polygon class="cls-2" points="33.65 27.85 33.45 27.78 40.83 7.52 41.03 7.59 33.65 27.85"/>
  <polygon class="cls-2" points="21.79 60.43 21.59 60.36 27.96 42.87 28.16 42.94 21.79 60.43"/>
  <polygon class="cls-2" points="32.3 27.47 32.09 27.44 36.25 3.85 36.46 3.88 32.3 27.47"/>
  <polygon class="cls-2" points="26.4 60.94 26.19 60.9 29.31 43.25 29.52 43.29 26.4 60.94"/>
</svg>